#N canvas 1078 186 796 617 10;
#X obj 34 428 / 127;
#X obj 34 450 sig~;
#X obj 113 200 > 0;
#X obj 113 391 pack 0 10;
#X obj 113 413 line~;
#X obj 212 195 / 127;
#X obj 212 217 sig~;
#X obj 34 472 outlet~ PITCH;
#X obj 113 435 outlet~ GATE;
#X obj 212 239 outlet~ VELOCITY;
#X obj 169 120 cnv 15 15 15 empty \$0-midi-gui-r empty 20 12 0 14 -258699
-262144 0;
#X obj 140 252 + 12;
#X msg 140 274 color \$1;
#X obj 140 307 s \$0-midi-gui-r;
#X obj 113 222 t f f;
#X obj 34 180 t f f;
#X floatatom 241 121 5 0 0 2 - - -, f 5;
#X floatatom 104 120 5 0 0 2 - - -, f 5;
#X obj 104 142 cnv 5 5 5 empty empty NOTE 0 0 0 8 -262144 -66577 0
;
#X obj 167 142 cnv 5 5 5 empty empty GATE 0 0 0 8 -262144 -66577 0
;
#X obj 251 142 cnv 5 5 5 empty empty VEL 0 0 0 8 -262144 -1 0;
#X obj 103 110 cnv 5 5 5 empty empty MIDI-IN 0 0 0 12 -262144 -66577
0;
#X obj 113 178 t f f f;
#X obj 29 156 notein 1;
#X obj 360 332 / 127;
#X obj 365 357 sig~;
#X obj 350 383 outlet~ CC1;
#X obj 444 342 / 127;
#X obj 444 364 sig~;
#X obj 533 342 / 127;
#X obj 533 364 sig~;
#X obj 533 314 t f f;
#X obj 622 342 / 127;
#X obj 622 364 sig~;
#X obj 622 314 t f f;
#X obj 365 181 ctlin 1 1;
#X floatatom 341 119 5 0 0 0 - - -, f 5;
#X floatatom 522 118 5 0 0 0 - - -, f 5;
#X floatatom 611 116 5 0 0 0 - - -, f 5;
#X floatatom 429 119 5 0 0 0 - - -, f 5;
#X text 346 132 cc1;
#X obj 444 314 t f f;
#X obj 359 306 t f f;
#X obj 440 386 outlet~ CC4;
#X obj 533 386 outlet~ CC6;
#X obj 622 386 outlet~ CC10;
#X text 433 133 cc4;
#X text 525 133 cc6;
#X text 615 131 cc10;
#X obj 437 181 ctlin 4 1;
#X obj 509 181 ctlin 6 1;
#X obj 582 181 ctlin 10 1;
#X connect 0 0 1 0;
#X connect 1 0 7 0;
#X connect 2 0 14 0;
#X connect 3 0 4 0;
#X connect 4 0 8 0;
#X connect 5 0 6 0;
#X connect 6 0 9 0;
#X connect 11 0 12 0;
#X connect 12 0 13 0;
#X connect 14 0 3 0;
#X connect 14 1 11 0;
#X connect 15 0 0 0;
#X connect 15 1 17 0;
#X connect 22 0 2 0;
#X connect 22 1 5 0;
#X connect 22 2 16 0;
#X connect 23 0 15 0;
#X connect 23 1 22 0;
#X connect 24 0 25 0;
#X connect 25 0 26 0;
#X connect 27 0 28 0;
#X connect 28 0 43 0;
#X connect 29 0 30 0;
#X connect 30 0 44 0;
#X connect 31 0 29 0;
#X connect 31 1 37 0;
#X connect 32 0 33 0;
#X connect 33 0 45 0;
#X connect 34 0 32 0;
#X connect 34 1 38 0;
#X connect 35 0 42 0;
#X connect 41 0 27 0;
#X connect 41 1 39 0;
#X connect 42 0 24 0;
#X connect 42 1 36 0;
#X connect 49 0 41 0;
#X connect 50 0 31 0;
#X connect 51 0 34 0;
#X coords 0 -1 1 1 550 50 2 100 100;
