#N canvas 9 23 759 589 10;
#X obj 38 79 notein;
#N canvas 484 70 762 609 synth 1;
#X obj 50 38 inlet;
#X obj 50 66 mtof;
#X obj 49 156 osc~;
#X obj 52 210 *~;
#X obj 116 89 bng 15 250 50 0 empty empty empty 17 7 0 10 -262144 -1
-1;
#X msg 117 116 1 5;
#X obj 174 109 del 10;
#X obj 174 130 pack 0 500;
#X obj 174 151 line~;
#X obj 174 172 *~;
#X obj 174 193 *~;
#X floatatom 248 93 5 0 0 0 - - -;
#X obj 52 231 outlet~;
#X obj 303 49 loadbang;
#X msg 303 70 2000;
#X floatatom 49 101 5 0 0 0 - - -;
#X connect 0 0 1 0;
#X connect 1 0 15 0;
#X connect 1 0 4 0;
#X connect 2 0 3 0;
#X connect 3 0 12 0;
#X connect 4 0 5 0;
#X connect 4 0 6 0;
#X connect 5 0 8 0;
#X connect 6 0 7 0;
#X connect 7 0 8 0;
#X connect 8 0 9 0;
#X connect 8 0 9 1;
#X connect 9 0 10 0;
#X connect 9 0 10 1;
#X connect 10 0 3 1;
#X connect 11 0 7 1;
#X connect 13 0 14 0;
#X connect 14 0 11 0;
#X connect 15 0 2 0;
#X restore 192 162 pd synth;
#X obj 41 219 dac~;
#X obj 39 157 clone synth.cl 64;
#X msg 40 109 next \$1;
#X connect 0 0 4 0;
#X connect 3 0 2 0;
#X connect 4 0 3 0;
