#N canvas 711 42 772 595 10;
#X obj 50 38 inlet;
#X obj 50 66 mtof;
#X obj 52 231 outlet~;
#X floatatom 51 98 5 0 0 0 - - -;
#X obj 52 138 osc~ 440;
#X connect 0 0 1 0;
#X connect 1 0 3 0;
#X connect 3 0 4 0;
#X connect 4 0 2 0;
